<?xml version="1.0" encoding="UTF-8"?>
<svg id="Ebene_2" data-name="Ebene 2" xmlns="http://www.w3.org/2000/svg" viewBox="0 0 288.99 224">
  <defs>
    <style>
      .cls-1 {
        fill: #fff;
      }

      .cls-2 {
        fill: #baff29;
        font-family: Exo2-Regular, 'Exo 2';
        font-size: 200px;
      }
    </style>
  </defs>
  <g id="Ebene_1-2" data-name="Ebene 1">
    <path class="cls-1" d="M21.99,75.08c2.83-4.89,6.54-8.7,11.12-11.44,4.58-2.74,10.13-4.16,16.65-4.24,3.68,0,7.01.41,9.96,1.22,2.96.82,5.55,1.99,7.78,3.54,1.63,1.2,3.11,2.66,4.44,4.37,1.33,1.72,2.46,3.64,3.41,5.79,1.2-1.97,2.61-3.81,4.24-5.53,1.63-1.71,3.38-3.21,5.27-4.5,2.4-1.46,5.08-2.61,8.04-3.47,2.96-.86,6.19-1.33,9.71-1.41,4.8,0,9.13.71,12.98,2.12,3.86,1.41,7.11,3.49,9.77,6.24,2.91,3.09,5.14,7.09,6.69,12.02,1.54,4.93,2.31,10.74,2.31,17.42v103.88h-22.63v-104.14c0-2.91-.34-5.48-1.03-7.71-.69-2.23-1.67-4.07-2.96-5.53-1.37-1.37-3.07-2.4-5.08-3.09-2.02-.69-4.35-1.03-7.01-1.03-2.83,0-5.27.39-7.33,1.16s-3.77,1.8-5.14,3.09c-1.37,1.37-2.44,2.94-3.21,4.69-.77,1.76-1.29,3.71-1.54,5.85v106.71h-22.63v-104.27c0-2.91-.32-5.48-.96-7.71-.64-2.23-1.65-4.07-3.02-5.53-1.29-1.37-2.89-2.38-4.82-3.02-1.93-.64-4.18-.96-6.75-.96-2.83,0-5.29.32-7.39.96-2.1.64-3.88,1.56-5.34,2.76-1.11.94-2.08,2.02-2.89,3.21-.81,1.2-1.48,2.49-1.99,3.86v110.7H0V61.97h21.34l.64,13.11Z"/>
    <text class="cls-2" transform="translate(145.14 169)"><tspan x="0" y="0">}</tspan></text>
    <path class="cls-1" d="M286.52,131.98c-1.64-4.72-3.94-8.98-6.89-12.77-2.78-3.46-6.32-6.62-10.62-9.48-4.3-2.87-8.77-4.85-13.41-5.94v-.38c4.47-1.94,8.28-4,11.45-6.2,3.16-2.19,6.05-4.89,8.66-8.09,2.53-3.12,4.53-6.66,6.01-10.62,1.47-3.96,2.25-8.35,2.34-13.15.08-8.6-1.56-15.98-4.93-22.13-3.37-6.15-7.88-11.21-13.53-15.18-8.03-5.64-16.28-7.95-19.35-8.79-18.73-5.11-42.82-1.89-46.28-1.41v17c18.04.06,31.74,1.63,38.12,3.19,1.98.48,6.98,1.76,11.57,5.06,3.29,2.36,5.92,5.36,7.9,8.98,1.98,3.63,2.97,8.01,2.97,13.15,0,4.81-1.01,9.02-3.04,12.65-2.02,3.63-4.68,6.66-7.97,9.11-3.29,2.53-7.04,4.45-11.26,5.75-4.22,1.31-8.52,2-12.9,2.09h-20.42c0,6.49,0,12.98,0,19.48h25.09c4.97.17,9.61,1.01,13.91,2.53s8.05,3.67,11.26,6.45c3.2,2.87,5.71,6.32,7.52,10.37,1.81,4.05,2.68,8.68,2.59,13.91,0,5.14-.99,9.74-2.97,13.78-1.98,4.05-4.66,7.46-8.03,10.24,0,0-4.78,3.98-11.63,6.51-6.22,2.3-21.87,4.61-42.74,3.75v18c7.38.68,27.1,2.16,42.65-.93,4.3-.85,7.62-1.93,8.37-2.17,7.38-2.36,13.89-5.77,19.54-10.24,5.65-4.38,10.16-9.86,13.53-16.44,3.37-6.58,5.02-14.16,4.93-22.76,0-5.48-.82-10.58-2.47-15.3Z"/>
  </g>
</svg>